<svg width="800" height="400" viewBox="0 0 800 400" xmlns="http://www.w3.org/2000/svg"><rect x="0" y="0" width="800" height="400" fill="#fff"/><clipPath id="satori_cp-id-0"><rect x="363" y="128" width="75" height="65"/></clipPath><mask id="satori_om-id-0"><rect x="363" y="128" width="75" height="65" fill="#fff"/></mask><image x="363" y="128" width="75" height="65" href="data:image/svg+xml;utf8,%3Csvg fill=%22%23000%22 xmlns=%22http://www.w3.org/2000/svg%22 viewBox=%220 0 75 65%22 width=%2275%22 height=%2265%22%3E%3Cpath d=%22M37.59.25l36.95 64H.64l36.95-64z%22%3E%3C/path%3E%3C/svg%3E" preserveAspectRatio="none" clip-path="url(#satori_cp-id-0)" mask="url(#satori_om-id-0)"/><path fill="black" d="M311.9 263.0L307.0 263.0L307.0 239.7L311.9 239.7L311.9 249.3L321.9 249.3L321.9 239.7L326.8 239.7L326.8 263.0L321.9 263.0L321.9 253.3L311.9 253.3L311.9 263.0ZM338.8 263.3L338.8 263.3Q336.1 263.3 334.1 262.2Q332.2 261.1 331.1 259.1Q330.1 257.1 330.1 254.3L330.1 254.3Q330.1 251.6 331.1 249.6Q332.2 247.5 334.1 246.4Q336 245.3 338.6 245.3L338.6 245.3Q340.3 245.3 341.8 245.8Q343.3 246.4 344.4 247.5Q345.5 248.6 346.1 250.2Q346.8 251.9 346.8 254.1L346.8 254.1L346.8 255.5L332.0 255.5L332.0 252.5L342.2 252.5Q342.2 251.4 341.8 250.6Q341.3 249.8 340.5 249.3Q339.7 248.9 338.6 248.9L338.6 248.9Q337.5 248.9 336.7 249.4Q335.9 249.9 335.4 250.7Q334.9 251.6 334.9 252.6L334.9 252.6L334.9 255.5Q334.9 256.8 335.4 257.7Q335.9 258.7 336.7 259.2Q337.6 259.7 338.8 259.7L338.8 259.7Q339.6 259.7 340.3 259.5Q341.0 259.2 341.5 258.8Q341.9 258.3 342.2 257.7L342.2 257.7L346.7 258.0Q346.3 259.6 345.3 260.8Q344.2 262.0 342.6 262.6Q340.9 263.3 338.8 263.3ZM349.9 239.7L354.8 239.7L354.8 263.0L349.9 263.0L349.9 239.7ZM358.6 239.7L363.5 239.7L363.5 263.0L358.6 263.0L358.6 239.7ZM375.2 263.3L375.2 263.3Q372.6 263.3 370.7 262.2Q368.7 261.0 367.7 259.0Q366.6 257.0 366.6 254.3L366.6 254.3Q366.6 251.6 367.7 249.6Q368.7 247.5 370.7 246.4Q372.6 245.3 375.2 245.3L375.2 245.3Q377.9 245.3 379.8 246.4Q381.7 247.5 382.8 249.6Q383.8 251.6 383.8 254.3L383.8 254.3Q383.8 257.0 382.8 259.0Q381.7 261.0 379.8 262.2Q377.9 263.3 375.2 263.3ZM375.2 259.5L375.2 259.5Q376.5 259.5 377.3 258.9Q378.1 258.2 378.5 257.0Q378.9 255.8 378.9 254.3L378.9 254.3Q378.9 252.7 378.5 251.5Q378.1 250.3 377.3 249.7Q376.5 249.0 375.2 249.0L375.2 249.0Q374.0 249.0 373.2 249.7Q372.4 250.3 372.0 251.5Q371.6 252.7 371.6 254.3L371.6 254.3Q371.6 255.8 372.0 257.0Q372.4 258.2 373.2 258.9Q374.0 259.5 375.2 259.5ZM388.2 259.8L392.2 259.8L392.1 261.0Q392.0 262.5 391.6 264.0Q391.1 265.5 390.7 266.7Q390.2 267.9 390.0 268.6L390.0 268.6L386.8 268.6Q387.0 268.0 387.3 266.8Q387.6 265.6 387.9 264.1Q388.1 262.6 388.2 261.0L388.2 261.0L388.2 259.8Z M414.2 263.0L409.4 263.0L402.8 239.7L408.1 239.7L412.0 255.8L412.2 255.8L416.4 239.7L421.0 239.7L425.3 255.9L425.5 255.9L429.3 239.7L434.7 239.7L428.0 263.0L423.3 263.0L418.8 247.7L418.6 247.7L414.2 263.0ZM443.2 263.3L443.2 263.3Q440.6 263.3 438.7 262.2Q436.7 261.0 435.7 259.0Q434.6 257.0 434.6 254.3L434.6 254.3Q434.6 251.6 435.7 249.6Q436.7 247.5 438.7 246.4Q440.6 245.3 443.2 245.3L443.2 245.3Q445.9 245.3 447.8 246.4Q449.7 247.5 450.8 249.6Q451.8 251.6 451.8 254.3L451.8 254.3Q451.8 257.0 450.8 259.0Q449.7 261.0 447.8 262.2Q445.9 263.3 443.2 263.3ZM443.3 259.5L443.3 259.5Q444.5 259.5 445.3 258.9Q446.1 258.2 446.5 257.0Q446.9 255.8 446.9 254.3L446.9 254.3Q446.9 252.7 446.5 251.5Q446.1 250.3 445.3 249.7Q444.5 249.0 443.3 249.0L443.3 249.0Q442.0 249.0 441.2 249.7Q440.4 250.3 440.0 251.5Q439.6 252.7 439.6 254.3L439.6 254.3Q439.6 255.8 440.0 257.0Q440.4 258.2 441.2 258.9Q442.0 259.5 443.3 259.5ZM459.8 263.0L455.0 263.0L455.0 245.5L459.7 245.5L459.7 248.5L459.9 248.5Q460.3 246.9 461.5 246.1Q462.6 245.2 464.1 245.2L464.1 245.2Q464.4 245.2 464.8 245.3Q465.3 245.3 465.6 245.4L465.6 245.4L465.6 249.7Q465.2 249.6 464.6 249.5Q464.0 249.5 463.5 249.5L463.5 249.5Q462.5 249.5 461.6 249.9Q460.8 250.4 460.3 251.2Q459.8 252.0 459.8 253.1L459.8 253.1L459.8 263.0ZM468.1 239.7L472.9 239.7L472.9 263.0L468.1 263.0L468.1 239.7ZM483.2 263.2L483.2 263.2Q481.2 263.2 479.6 262.2Q478 261.2 477.1 259.2Q476.1 257.2 476.1 254.2L476.1 254.2Q476.1 251.2 477.1 249.3Q478.1 247.3 479.7 246.3Q481.3 245.3 483.2 245.3L483.2 245.3Q484.7 245.3 485.6 245.8Q486.6 246.3 487.2 247.0Q487.8 247.7 488.2 248.4L488.2 248.4L488.3 248.4L488.3 239.7L493.1 239.7L493.1 263.0L488.4 263.0L488.4 260.2L488.2 260.2Q487.8 260.9 487.2 261.6Q486.6 262.3 485.6 262.8Q484.6 263.2 483.2 263.2ZM484.7 259.4L484.7 259.4Q485.9 259.4 486.7 258.7Q487.5 258.1 488.0 256.9Q488.4 255.8 488.4 254.2L488.4 254.2Q488.4 252.7 488.0 251.5Q487.5 250.4 486.7 249.7Q485.9 249.1 484.7 249.1L484.7 249.1Q483.5 249.1 482.7 249.8Q481.9 250.4 481.5 251.6Q481.1 252.7 481.1 254.2L481.1 254.2Q481.1 255.7 481.5 256.9Q481.9 258.1 482.7 258.7Q483.5 259.4 484.7 259.4Z "/></svg>